
<svg viewBox="537.77 104.85 487.5 489.7099999999999" aria-description="Aperiodic Hat Tile" width="487.5" height="489.7099999999999"
	xmlns="http://www.w3.org/2000/svg" >
	<path fill="#6d3bbf" d="M937.77,198.15L937.77,241.45L912.77,241.45L887.77,284.75L900.27,306.4L862.77,328.05L862.77,371.35L887.77,371.35L912.77,414.66L937.77,414.66L937.77,457.96L900.27,479.61L912.77,501.26L887.77,544.56L862.77,544.56L862.77,501.26L825.27,479.61L837.77,457.96L812.77,414.66L787.77,414.66L787.77,371.35L750.27,349.7L737.77,371.35L687.77,371.35L675.27,393L637.77,371.35L637.77,328.05L612.77,328.05L587.77,284.75L600.27,263.1L637.77,284.75L675.27,263.1L687.77,284.75L737.77,284.75L750.27,263.1L787.77,284.75L825.27,263.1L812.77,241.45L837.77,198.15L825.27,176.5L862.77,154.85L900.27,176.5L912.77,154.85L962.77,154.85L975.27,176.5Z" style="transform: none; transform-origin: 193.75px 194.855px; fill: rgb(109, 59, 191); stroke: rgb(255, 255, 255); transform-box: fill-box;"/>
</svg>