
<svg viewBox="674 92.75999999999999 362.5 338.15000000000003" aria-description="Aperiodic Hat Tile" width="362.5" height="338.15000000000003"
	xmlns="http://www.w3.org/2000/svg" >
		<path fill="#6d3bbf" d="M1912.25,-470.68L1928.98,-452.1L1921.25,-428.32L1913.52,-404.55L1864.62,-394.15L1847.89,-412.73L1815.71,-383.75L1774.53,-397.14L1766.8,-373.36L1783.53,-354.78L1751.35,-325.81L1710.17,-339.19L1702.44,-315.41L1735.9,-278.25L1728.18,-254.48L1686.99,-267.86L1654.81,-238.88L1638.09,-257.46L1589.18,-247.07L1581.45,-223.29L1540.27,-236.67L1508.09,-207.7L1524.82,-189.12L1509.37,-141.57L1526.1,-122.99L1493.92,-94.01L1452.74,-107.39L1445.01,-83.62L1396.1,-73.22L1379.38,-91.8L1411.56,-120.77L1402.55,-163.13L1427.01,-168.33L1442.46,-215.88L1425.73,-234.46L1457.91,-263.43L1448.9,-305.79L1424.45,-300.59L1416.73,-276.81L1375.54,-290.19L1343.36,-261.22L1326.64,-279.8L1277.73,-269.4L1270,-245.63L1228.82,-259.01L1196.64,-230.03L1213.37,-211.45L1197.92,-163.9L1214.65,-145.32L1182.47,-116.35L1141.29,-129.73L1133.56,-105.95L1084.65,-95.56L1067.93,-114.14L1100.11,-143.11L1091.1,-185.47L1115.56,-190.66L1131.01,-238.22L1114.28,-256.79L1146.46,-285.77L1137.45,-328.12L1113,-322.93L1105.28,-299.15L1064.09,-312.53L1031.91,-283.56L1015.19,-302.13L966.28,-291.74L958.55,-267.96L917.37,-281.34L885.19,-252.37L901.92,-233.79L886.47,-186.24L903.2,-167.66L871.02,-138.69L829.84,-152.07L822.11,-128.29L773.2,-117.89L756.48,-136.47L788.66,-165.45L779.65,-207.8L804.11,-213L819.56,-260.55L802.83,-279.13L835.01,-308.11L826,-350.46L801.55,-345.26L793.83,-321.49L752.64,-334.87L720.46,-305.89L703.74,-324.47L654.83,-314.08L647.1,-290.3L605.92,-303.68L573.74,-274.71L590.47,-256.13L575.02,-208.57L591.75,-190L559.57,-161.02L518.39,-174.4L510.66,-150.63L461.75,-140.23L454.03,-116.45L412.85,-129.84L403.84,-172.19L379.39,-166.99L345.93,-204.15L353.66,-227.93L312.48,-241.31L303.47,-283.66L279.02,-278.46L263.57,-230.91L280.3,-212.33L248.12,-183.36L206.94,-196.74L199.21,-172.96L150.3,-162.57L142.58,-138.79L101.4,-152.17L92.39,-194.53L67.94,-189.33L34.48,-226.49L42.21,-250.26L1.03,-263.64L-7.98,-306L-32.43,-300.8L-47.88,-253.25L-31.15,-234.67L-63.33,-205.7L-104.51,-219.08L-112.24,-195.3L-161.15,-184.9L-168.87,-161.13L-210.05,-174.51L-219.06,-216.86L-243.51,-211.67L-276.97,-248.82L-269.24,-272.6L-310.42,-285.98L-319.43,-328.34L-343.88,-323.14L-359.33,-275.58L-342.6,-257.01L-374.78,-228.03L-365.78,-185.68L-341.32,-190.87L-307.87,-153.72L-315.59,-129.94L-356.78,-143.32L-388.95,-114.35L-405.68,-132.93L-454.59,-122.53L-462.32,-98.75L-503.5,-112.13L-535.68,-83.16L-518.95,-64.58L-534.4,-17.03L-517.67,1.55L-549.85,30.52L-591.03,17.14L-598.76,40.92L-647.66,51.31L-664.39,32.74L-632.21,3.76L-641.22,-38.59L-616.76,-43.79L-601.31,-91.34L-618.04,-109.92L-585.86,-138.9L-594.86,-181.25L-619.32,-176.05L-652.77,-213.21L-677.23,-208.01L-686.23,-250.37L-654.05,-279.34L-670.78,-297.92L-655.33,-345.47L-630.88,-350.67L-621.87,-308.32L-580.69,-294.94L-588.42,-271.16L-554.96,-234L-530.51,-239.2L-521.5,-196.84L-480.32,-183.46L-472.6,-207.24L-489.32,-225.82L-457.14,-254.79L-466.15,-297.15L-441.69,-302.35L-426.24,-349.9L-442.97,-368.48L-410.79,-397.45L-419.79,-439.81L-444.25,-434.61L-477.71,-471.77L-502.16,-466.57L-511.16,-508.92L-478.98,-537.9L-495.71,-556.48L-480.26,-604.03L-455.81,-609.23L-446.8,-566.87L-405.62,-553.49L-413.35,-529.71L-379.89,-492.56L-355.44,-497.76L-346.43,-455.4L-305.25,-442.02L-297.53,-465.8L-248.62,-476.19L-240.89,-499.97L-199.71,-486.59L-167.53,-515.56L-184.26,-534.14L-168.81,-581.69L-144.36,-586.89L-135.35,-544.54L-94.17,-531.15L-101.9,-507.38L-68.44,-470.22L-43.99,-475.42L-34.98,-433.06L6.2,-419.68L13.92,-443.46L62.83,-453.85L70.56,-477.63L111.74,-464.25L143.92,-493.22L127.19,-511.8L142.64,-559.36L167.09,-564.55L176.1,-522.2L217.28,-508.82L209.55,-485.04L243.01,-447.88L267.46,-453.08L276.47,-410.73L317.65,-397.35L325.37,-421.12L374.28,-431.52L382.01,-455.29L423.19,-441.91L455.37,-470.89L438.64,-489.47L454.09,-537.02L437.36,-555.6L469.54,-584.57L510.72,-571.19L518.45,-594.97L567.36,-605.36L575.08,-629.14L616.26,-615.76L648.44,-644.73L631.71,-663.31L607.26,-658.11L598.26,-700.47L630.44,-729.44L613.71,-748.02L629.16,-795.57L653.61,-800.77L662.62,-758.42L703.8,-745.04L696.07,-721.26L729.53,-684.1L753.98,-689.3L762.99,-646.95L804.17,-633.56L811.89,-657.34L860.8,-667.74L868.53,-691.51L909.71,-678.13L941.89,-707.11L925.16,-725.69L940.61,-773.24L965.06,-778.44L974.07,-736.08L1015.25,-722.7L1007.52,-698.92L1040.98,-661.77L1065.43,-666.96L1074.44,-624.61L1115.62,-611.23L1123.34,-635L1172.25,-645.4L1179.98,-669.18L1221.16,-655.8L1253.34,-684.77L1236.61,-703.35L1252.06,-750.9L1276.51,-756.1L1285.52,-713.74L1326.7,-700.36L1318.97,-676.59L1352.43,-639.43L1376.88,-644.63L1385.88,-602.27L1427.07,-588.89L1434.79,-612.67L1483.7,-623.06L1491.43,-646.84L1532.61,-633.46L1564.79,-662.43L1548.06,-681.01L1563.51,-728.57L1587.96,-733.76L1596.97,-691.41L1638.15,-678.03L1630.42,-654.25L1663.88,-617.09L1688.33,-622.29L1697.33,-579.94L1738.52,-566.56L1746.24,-590.33L1795.15,-600.73L1802.88,-624.5L1844.06,-611.12L1853.06,-568.77L1877.51,-573.97L1910.97,-536.81L1935.42,-542.01L1944.43,-499.65Z" style="transform: none; transform-origin: 1315.33px 426.04px; fill: rgb(109, 59, 191); stroke: rgb(255, 255, 255); transform-box: fill-box;"/>
</svg>